<svg xmlns="http://www.w3.org/2000/svg" height="40px" viewBox="0 -960 960 960" width="40px" fill="#e3e3e3"><path d="m327.13-327.13 229.23-76.36 76.36-229.23-229.23 76.36-76.36 229.23Zm152.53-114.41q-15.74 0-26.93-11.53t-11.19-27.27q0-15.74 11.53-26.93t27.27-11.19q15.74 0 26.93 11.53t11.19 27.27q0 15.74-11.53 26.93t-27.27 11.19Zm.65 321.54q-75.01 0-140.59-28.34t-114.28-77Q176.73-274 148.37-339.57 120-405.14 120-480.2q0-74.55 28.34-140.18 28.34-65.63 77-114.26 48.66-48.63 114.23-76.99Q405.14-840 480.2-840q74.55 0 140.18 28.34 65.63 28.34 114.26 76.92 48.63 48.58 76.99 114.26Q840-554.81 840-480.31q0 75.01-28.34 140.59t-76.92 114.16q-48.58 48.58-114.26 77.07Q554.81-120 480.31-120Zm.01-33.85q135.86 0 230.85-95.05 94.98-95.06 94.98-231.42 0-135.86-94.98-230.85-94.99-94.98-230.85-94.98-136.36 0-231.42 94.98-95.05 94.99-95.05 230.85 0 136.36 95.05 231.42 95.06 95.05 231.42 95.05ZM480-480Z"/></svg>